<svg width="32" height="32" viewBox="0 0 948 948" fill="none" xmlns="http://www.w3.org/2000/svg">
<path d="M857.621 196.529L737.287 240.976L672.718 264.816L275.869 411.386V293.125L633.871 160.915C585.75 136.31 531.22 122.435 473.456 122.435C400.245 122.435 332.236 144.732 275.869 182.903C218.899 221.471 173.791 276.266 147.187 340.658C130.828 380.226 121.48 423.424 120.657 468.709C120.598 470.899 120.583 473.103 120.583 475.308C120.583 500.53 123.229 525.149 128.271 548.872C136.105 585.853 149.744 620.702 168.191 652.406L54.5447 694.383C37.4067 661.915 23.9138 627.213 14.654 590.835C8.20155 565.54 3.77742 539.421 1.6021 512.685C0.543831 499.78 0 486.714 0 473.529C0 445.882 2.3664 418.794 6.92282 392.455C33.7763 236.801 136.619 107.149 275.869 43.1096C336.014 15.433 402.964 0 473.529 0C544.095 0 612.177 15.6976 672.718 43.8151C709.787 61.0119 744.254 82.8827 775.356 108.649C806.354 134.311 834.03 163.855 857.621 196.529Z" fill="url(#paint0_linear_570_808)"/>
<path d="M947.065 473.53C947.065 506.425 943.714 538.525 937.32 569.538C906.763 717.96 806.742 841.027 672.725 903.245C612.183 931.362 544.689 947.06 473.536 947.06C402.382 947.06 336.02 931.627 275.875 903.95C242.878 888.781 211.938 869.924 183.556 847.921C151.309 822.905 122.383 793.817 97.543 761.422L216.745 717.401L275.875 695.56L672.725 548.99V667.251L325.202 795.61C370.281 816.526 420.505 828.181 473.462 828.181C547.408 828.181 616.034 805.443 672.725 766.581C725.241 730.586 767.527 680.759 794.322 622.349C812.636 582.473 823.718 538.613 825.923 492.417C826.202 486.758 826.335 481.041 826.335 475.309C826.335 453.511 824.365 432.184 820.558 411.475C813.768 374.23 801.113 339.028 783.593 306.853L898.488 264.42C914.729 297.314 927.237 332.369 935.483 369.026C941.259 394.601 944.949 420.97 946.374 447.926C946.83 456.407 947.065 464.946 947.065 473.53Z" fill="url(#paint1_linear_570_808)"/>
<path d="M672.72 347.803V466.079L275.871 612.634V494.373L672.72 347.803Z" fill="url(#paint2_linear_570_808)"/>
<defs>
<linearGradient id="paint0_linear_570_808" x1="330.981" y1="667.945" x2="1113.19" y2="-122.877" gradientUnits="userSpaceOnUse">
<stop offset="0.2" stop-color="#6A48F2"/>
<stop offset="0.85" stop-color="#BE55FF"/>
</linearGradient>
<linearGradient id="paint1_linear_570_808" x1="425.398" y1="921.068" x2="1194.29" y2="137.802" gradientUnits="userSpaceOnUse">
<stop offset="0.2" stop-color="#6A48F2"/>
<stop offset="0.85" stop-color="#BE55FF"/>
</linearGradient>
<linearGradient id="paint2_linear_570_808" x1="429.027" y1="602.551" x2="721.253" y2="244.095" gradientUnits="userSpaceOnUse">
<stop offset="0.2" stop-color="#6A48F2"/>
<stop offset="0.85" stop-color="#BE55FF"/>
</linearGradient>
</defs>
</svg>




